<mxfile host="Electron" modified="2023-12-12T14:27:37.181Z" agent="Mozilla/5.0 (Windows NT 10.0; Win64; x64) AppleWebKit/537.36 (KHTML, like Gecko) draw.io/22.1.2 Chrome/114.0.5735.289 Electron/25.9.4 Safari/537.36" etag="VN9wAypglyZr_eOBrcM3" version="22.1.2" type="device">
  <diagram name="Page-1" id="iz5HP82dKS5toiJqnTVh">
    <mxGraphModel dx="1050" dy="717" grid="1" gridSize="10" guides="1" tooltips="1" connect="1" arrows="1" fold="1" page="1" pageScale="1" pageWidth="827" pageHeight="1400" math="0" shadow="0">
      <root>
        <mxCell id="0" />
        <mxCell id="1" parent="0" />
        <mxCell id="J6YcUBSGVDUF65HJ9Uh1-1" value="Utilisateur" style="shape=umlLifeline;perimeter=lifelinePerimeter;whiteSpace=wrap;html=1;container=1;dropTarget=0;collapsible=0;recursiveResize=0;outlineConnect=0;portConstraint=eastwest;newEdgeStyle={&quot;curved&quot;:0,&quot;rounded&quot;:0};participant=umlActor;" vertex="1" parent="1">
          <mxGeometry x="350" y="80" width="20" height="570" as="geometry" />
        </mxCell>
        <mxCell id="J6YcUBSGVDUF65HJ9Uh1-2" value=":Système" style="shape=umlLifeline;perimeter=lifelinePerimeter;whiteSpace=wrap;html=1;container=1;dropTarget=0;collapsible=0;recursiveResize=0;outlineConnect=0;portConstraint=eastwest;newEdgeStyle={&quot;curved&quot;:0,&quot;rounded&quot;:0};" vertex="1" parent="1">
          <mxGeometry x="590" y="80" width="100" height="570" as="geometry" />
        </mxCell>
        <mxCell id="J6YcUBSGVDUF65HJ9Uh1-3" value="1. Ajoute un produit dans le panier" style="html=1;verticalAlign=bottom;endArrow=block;curved=0;rounded=0;" edge="1" parent="1" source="J6YcUBSGVDUF65HJ9Uh1-1" target="J6YcUBSGVDUF65HJ9Uh1-2">
          <mxGeometry width="80" relative="1" as="geometry">
            <mxPoint x="380" y="370" as="sourcePoint" />
            <mxPoint x="460" y="370" as="targetPoint" />
            <Array as="points">
              <mxPoint x="500" y="160" />
            </Array>
            <mxPoint as="offset" />
          </mxGeometry>
        </mxCell>
        <mxCell id="J6YcUBSGVDUF65HJ9Uh1-4" value="2. Connexion au site" style="html=1;verticalAlign=bottom;endArrow=block;curved=0;rounded=0;" edge="1" parent="1" source="J6YcUBSGVDUF65HJ9Uh1-1" target="J6YcUBSGVDUF65HJ9Uh1-2">
          <mxGeometry width="80" relative="1" as="geometry">
            <mxPoint x="380" y="370" as="sourcePoint" />
            <mxPoint x="460" y="370" as="targetPoint" />
            <Array as="points">
              <mxPoint x="500" y="230" />
            </Array>
          </mxGeometry>
        </mxCell>
        <mxCell id="J6YcUBSGVDUF65HJ9Uh1-5" value="3. Affiche formulaire de connexion" style="html=1;verticalAlign=bottom;endArrow=open;dashed=1;endSize=8;curved=0;rounded=0;" edge="1" parent="1" source="J6YcUBSGVDUF65HJ9Uh1-2" target="J6YcUBSGVDUF65HJ9Uh1-1">
          <mxGeometry relative="1" as="geometry">
            <mxPoint x="460" y="370" as="sourcePoint" />
            <mxPoint x="380" y="370" as="targetPoint" />
            <Array as="points">
              <mxPoint x="500" y="260" />
            </Array>
          </mxGeometry>
        </mxCell>
        <mxCell id="J6YcUBSGVDUF65HJ9Uh1-6" value="4. Saisie ses informations" style="html=1;verticalAlign=bottom;endArrow=block;curved=0;rounded=0;" edge="1" parent="1" source="J6YcUBSGVDUF65HJ9Uh1-1" target="J6YcUBSGVDUF65HJ9Uh1-2">
          <mxGeometry width="80" relative="1" as="geometry">
            <mxPoint x="380" y="370" as="sourcePoint" />
            <mxPoint x="460" y="370" as="targetPoint" />
            <Array as="points">
              <mxPoint x="500" y="290" />
            </Array>
          </mxGeometry>
        </mxCell>
        <mxCell id="J6YcUBSGVDUF65HJ9Uh1-7" value="5. Connecté au site" style="html=1;verticalAlign=bottom;endArrow=open;dashed=1;endSize=8;curved=0;rounded=0;" edge="1" parent="1" source="J6YcUBSGVDUF65HJ9Uh1-2" target="J6YcUBSGVDUF65HJ9Uh1-1">
          <mxGeometry relative="1" as="geometry">
            <mxPoint x="460" y="370" as="sourcePoint" />
            <mxPoint x="380" y="370" as="targetPoint" />
            <Array as="points">
              <mxPoint x="500" y="320" />
            </Array>
          </mxGeometry>
        </mxCell>
        <mxCell id="J6YcUBSGVDUF65HJ9Uh1-10" value="6. Saisit ses adresses" style="html=1;verticalAlign=bottom;endArrow=block;curved=0;rounded=0;" edge="1" parent="1" source="J6YcUBSGVDUF65HJ9Uh1-1" target="J6YcUBSGVDUF65HJ9Uh1-2">
          <mxGeometry width="80" relative="1" as="geometry">
            <mxPoint x="420" y="490" as="sourcePoint" />
            <mxPoint x="500" y="490" as="targetPoint" />
            <Array as="points">
              <mxPoint x="490" y="400" />
            </Array>
          </mxGeometry>
        </mxCell>
        <mxCell id="J6YcUBSGVDUF65HJ9Uh1-12" value="7. Confirmation" style="html=1;verticalAlign=bottom;endArrow=open;dashed=1;endSize=8;curved=0;rounded=0;" edge="1" parent="1" source="J6YcUBSGVDUF65HJ9Uh1-2" target="J6YcUBSGVDUF65HJ9Uh1-1">
          <mxGeometry relative="1" as="geometry">
            <mxPoint x="460" y="370" as="sourcePoint" />
            <mxPoint x="380" y="370" as="targetPoint" />
            <Array as="points">
              <mxPoint x="500" y="430" />
            </Array>
          </mxGeometry>
        </mxCell>
        <mxCell id="J6YcUBSGVDUF65HJ9Uh1-13" value="8. Affiche les moyens de paiement" style="html=1;verticalAlign=bottom;endArrow=open;dashed=1;endSize=8;curved=0;rounded=0;" edge="1" parent="1" source="J6YcUBSGVDUF65HJ9Uh1-2" target="J6YcUBSGVDUF65HJ9Uh1-1">
          <mxGeometry relative="1" as="geometry">
            <mxPoint x="460" y="370" as="sourcePoint" />
            <mxPoint x="380" y="370" as="targetPoint" />
            <Array as="points">
              <mxPoint x="490" y="500" />
            </Array>
          </mxGeometry>
        </mxCell>
        <mxCell id="J6YcUBSGVDUF65HJ9Uh1-14" value="9. Selectionne sont moyen de paiement" style="html=1;verticalAlign=bottom;endArrow=block;curved=0;rounded=0;" edge="1" parent="1" source="J6YcUBSGVDUF65HJ9Uh1-1" target="J6YcUBSGVDUF65HJ9Uh1-2">
          <mxGeometry width="80" relative="1" as="geometry">
            <mxPoint x="380" y="370" as="sourcePoint" />
            <mxPoint x="460" y="370" as="targetPoint" />
            <Array as="points">
              <mxPoint x="490" y="530" />
            </Array>
          </mxGeometry>
        </mxCell>
        <mxCell id="J6YcUBSGVDUF65HJ9Uh1-15" value="10. Paie la commande" style="html=1;verticalAlign=bottom;endArrow=block;curved=0;rounded=0;" edge="1" parent="1" source="J6YcUBSGVDUF65HJ9Uh1-1" target="J6YcUBSGVDUF65HJ9Uh1-2">
          <mxGeometry width="80" relative="1" as="geometry">
            <mxPoint x="380" y="470" as="sourcePoint" />
            <mxPoint x="460" y="470" as="targetPoint" />
            <Array as="points">
              <mxPoint x="500" y="560" />
            </Array>
          </mxGeometry>
        </mxCell>
        <mxCell id="J6YcUBSGVDUF65HJ9Uh1-16" value="11. Commande validée et enregistrée" style="html=1;verticalAlign=bottom;endArrow=open;dashed=1;endSize=8;curved=0;rounded=0;" edge="1" parent="1" source="J6YcUBSGVDUF65HJ9Uh1-2" target="J6YcUBSGVDUF65HJ9Uh1-1">
          <mxGeometry relative="1" as="geometry">
            <mxPoint x="460" y="470" as="sourcePoint" />
            <mxPoint x="380" y="470" as="targetPoint" />
            <Array as="points">
              <mxPoint x="500" y="590" />
            </Array>
          </mxGeometry>
        </mxCell>
        <mxCell id="J6YcUBSGVDUF65HJ9Uh1-17" value="12. Facture générée" style="html=1;verticalAlign=bottom;endArrow=open;dashed=1;endSize=8;curved=0;rounded=0;" edge="1" parent="1" source="J6YcUBSGVDUF65HJ9Uh1-2" target="J6YcUBSGVDUF65HJ9Uh1-1">
          <mxGeometry relative="1" as="geometry">
            <mxPoint x="460" y="470" as="sourcePoint" />
            <mxPoint x="380" y="470" as="targetPoint" />
            <Array as="points">
              <mxPoint x="500" y="620" />
            </Array>
          </mxGeometry>
        </mxCell>
        <mxCell id="J6YcUBSGVDUF65HJ9Uh1-18" value="&lt;font style=&quot;font-size: 18px;&quot;&gt;Scénario &quot;Happy day&quot;&lt;/font&gt;" style="text;strokeColor=none;align=center;fillColor=none;html=1;verticalAlign=middle;whiteSpace=wrap;rounded=0;" vertex="1" parent="1">
          <mxGeometry x="400" y="20" width="180" height="30" as="geometry" />
        </mxCell>
        <mxCell id="J6YcUBSGVDUF65HJ9Uh1-19" value="utilisateur" style="shape=umlLifeline;perimeter=lifelinePerimeter;whiteSpace=wrap;html=1;container=1;dropTarget=0;collapsible=0;recursiveResize=0;outlineConnect=0;portConstraint=eastwest;newEdgeStyle={&quot;curved&quot;:0,&quot;rounded&quot;:0};participant=umlActor;" vertex="1" parent="1">
          <mxGeometry x="350" y="720" width="20" height="620" as="geometry" />
        </mxCell>
        <mxCell id="J6YcUBSGVDUF65HJ9Uh1-20" value=":système" style="shape=umlLifeline;perimeter=lifelinePerimeter;whiteSpace=wrap;html=1;container=1;dropTarget=0;collapsible=0;recursiveResize=0;outlineConnect=0;portConstraint=eastwest;newEdgeStyle={&quot;curved&quot;:0,&quot;rounded&quot;:0};" vertex="1" parent="1">
          <mxGeometry x="590" y="720" width="100" height="620" as="geometry" />
        </mxCell>
        <mxCell id="J6YcUBSGVDUF65HJ9Uh1-21" value="Flot Alternatif:&lt;br&gt;L&#39;utilisateur oublie sont mot de passe" style="text;strokeColor=none;align=center;fillColor=none;html=1;verticalAlign=middle;whiteSpace=wrap;rounded=0;" vertex="1" parent="1">
          <mxGeometry x="140" y="940" width="220" height="30" as="geometry" />
        </mxCell>
        <mxCell id="J6YcUBSGVDUF65HJ9Uh1-22" value="13. Redirige vers le formulaire d&#39;inscription" style="html=1;verticalAlign=bottom;endArrow=open;dashed=1;endSize=8;curved=0;rounded=0;" edge="1" parent="1" source="J6YcUBSGVDUF65HJ9Uh1-20" target="J6YcUBSGVDUF65HJ9Uh1-19">
          <mxGeometry relative="1" as="geometry">
            <mxPoint x="460" y="670" as="sourcePoint" />
            <mxPoint x="380" y="670" as="targetPoint" />
            <Array as="points">
              <mxPoint x="480" y="800" />
            </Array>
          </mxGeometry>
        </mxCell>
        <mxCell id="J6YcUBSGVDUF65HJ9Uh1-23" value="14. Complète le formulaire" style="html=1;verticalAlign=bottom;endArrow=block;curved=0;rounded=0;" edge="1" parent="1">
          <mxGeometry width="80" relative="1" as="geometry">
            <mxPoint x="359.5" y="830" as="sourcePoint" />
            <mxPoint x="639.5" y="830" as="targetPoint" />
          </mxGeometry>
        </mxCell>
        <mxCell id="J6YcUBSGVDUF65HJ9Uh1-24" value="15. Confirmation" style="html=1;verticalAlign=bottom;endArrow=open;dashed=1;endSize=8;curved=0;rounded=0;" edge="1" parent="1">
          <mxGeometry relative="1" as="geometry">
            <mxPoint x="639.5" y="860" as="sourcePoint" />
            <mxPoint x="359.5" y="860" as="targetPoint" />
          </mxGeometry>
        </mxCell>
        <mxCell id="J6YcUBSGVDUF65HJ9Uh1-25" value="Flot Alternatif:&lt;br&gt;L&#39;utilisateur n&#39;est pas inscrit au site" style="text;strokeColor=none;align=center;fillColor=none;html=1;verticalAlign=middle;whiteSpace=wrap;rounded=0;" vertex="1" parent="1">
          <mxGeometry x="140" y="790" width="220" height="30" as="geometry" />
        </mxCell>
        <mxCell id="J6YcUBSGVDUF65HJ9Uh1-26" value="16. Apelle mot de passe oublié&amp;nbsp;" style="html=1;verticalAlign=bottom;endArrow=block;curved=0;rounded=0;" edge="1" parent="1">
          <mxGeometry width="80" relative="1" as="geometry">
            <mxPoint x="360" y="960" as="sourcePoint" />
            <mxPoint x="640" y="960" as="targetPoint" />
          </mxGeometry>
        </mxCell>
        <mxCell id="J6YcUBSGVDUF65HJ9Uh1-27" value="17. Envoie mail réinitialisation mot de passe" style="html=1;verticalAlign=bottom;endArrow=open;dashed=1;endSize=8;curved=0;rounded=0;" edge="1" parent="1" source="J6YcUBSGVDUF65HJ9Uh1-20" target="J6YcUBSGVDUF65HJ9Uh1-19">
          <mxGeometry relative="1" as="geometry">
            <mxPoint x="500" y="990" as="sourcePoint" />
            <mxPoint x="420" y="990" as="targetPoint" />
            <Array as="points">
              <mxPoint x="490" y="990" />
            </Array>
          </mxGeometry>
        </mxCell>
        <mxCell id="J6YcUBSGVDUF65HJ9Uh1-28" value="18. Entre le nouveau mot de passe" style="html=1;verticalAlign=bottom;endArrow=block;curved=0;rounded=0;" edge="1" parent="1">
          <mxGeometry width="80" relative="1" as="geometry">
            <mxPoint x="360" y="1020" as="sourcePoint" />
            <mxPoint x="640" y="1020" as="targetPoint" />
          </mxGeometry>
        </mxCell>
        <mxCell id="J6YcUBSGVDUF65HJ9Uh1-29" value="19. Confirmation" style="html=1;verticalAlign=bottom;endArrow=open;dashed=1;endSize=8;curved=0;rounded=0;" edge="1" parent="1" source="J6YcUBSGVDUF65HJ9Uh1-20" target="J6YcUBSGVDUF65HJ9Uh1-19">
          <mxGeometry relative="1" as="geometry">
            <mxPoint x="520" y="1070" as="sourcePoint" />
            <mxPoint x="440" y="1070" as="targetPoint" />
            <Array as="points">
              <mxPoint x="490" y="1050" />
            </Array>
          </mxGeometry>
        </mxCell>
        <mxCell id="J6YcUBSGVDUF65HJ9Uh1-30" value="Flot Alternatif:&lt;br&gt;L&#39;une des adresses est erronée" style="text;strokeColor=none;align=center;fillColor=none;html=1;verticalAlign=middle;whiteSpace=wrap;rounded=0;" vertex="1" parent="1">
          <mxGeometry x="130" y="1100" width="220" height="30" as="geometry" />
        </mxCell>
        <mxCell id="J6YcUBSGVDUF65HJ9Uh1-32" value="20. Indique l&#39;adresse erronée" style="html=1;verticalAlign=bottom;endArrow=open;dashed=1;endSize=8;curved=0;rounded=0;" edge="1" parent="1">
          <mxGeometry relative="1" as="geometry">
            <mxPoint x="640" y="1120" as="sourcePoint" />
            <mxPoint x="360" y="1120" as="targetPoint" />
          </mxGeometry>
        </mxCell>
        <mxCell id="J6YcUBSGVDUF65HJ9Uh1-33" value="21. Saisit une nouvelle adresse" style="html=1;verticalAlign=bottom;endArrow=block;curved=0;rounded=0;" edge="1" parent="1" source="J6YcUBSGVDUF65HJ9Uh1-19" target="J6YcUBSGVDUF65HJ9Uh1-20">
          <mxGeometry width="80" relative="1" as="geometry">
            <mxPoint x="450" y="1190" as="sourcePoint" />
            <mxPoint x="530" y="1190" as="targetPoint" />
            <Array as="points">
              <mxPoint x="490" y="1150" />
            </Array>
          </mxGeometry>
        </mxCell>
        <mxCell id="J6YcUBSGVDUF65HJ9Uh1-34" value="22. Confirmation" style="html=1;verticalAlign=bottom;endArrow=open;dashed=1;endSize=8;curved=0;rounded=0;" edge="1" parent="1" source="J6YcUBSGVDUF65HJ9Uh1-20" target="J6YcUBSGVDUF65HJ9Uh1-19">
          <mxGeometry relative="1" as="geometry">
            <mxPoint x="530" y="1220" as="sourcePoint" />
            <mxPoint x="450" y="1220" as="targetPoint" />
            <Array as="points">
              <mxPoint x="490" y="1180" />
            </Array>
          </mxGeometry>
        </mxCell>
        <mxCell id="J6YcUBSGVDUF65HJ9Uh1-37" value="23. Indique le moyen de paiement n&#39;est pas disponnible" style="html=1;verticalAlign=bottom;endArrow=open;dashed=1;endSize=8;curved=0;rounded=0;" edge="1" parent="1" source="J6YcUBSGVDUF65HJ9Uh1-20" target="J6YcUBSGVDUF65HJ9Uh1-19">
          <mxGeometry relative="1" as="geometry">
            <mxPoint x="490" y="1270" as="sourcePoint" />
            <mxPoint x="410" y="1270" as="targetPoint" />
            <Array as="points">
              <mxPoint x="490" y="1270" />
            </Array>
          </mxGeometry>
        </mxCell>
        <mxCell id="J6YcUBSGVDUF65HJ9Uh1-38" value="24. Choisit un autre moyen de paiement" style="html=1;verticalAlign=bottom;endArrow=block;curved=0;rounded=0;" edge="1" parent="1" target="J6YcUBSGVDUF65HJ9Uh1-20">
          <mxGeometry width="80" relative="1" as="geometry">
            <mxPoint x="360" y="1300" as="sourcePoint" />
            <mxPoint x="440" y="1300" as="targetPoint" />
          </mxGeometry>
        </mxCell>
        <mxCell id="J6YcUBSGVDUF65HJ9Uh1-39" value="Flot Alternatif:&lt;br&gt;Le moyen de paiement n&#39;est pas disponnible" style="text;strokeColor=none;align=center;fillColor=none;html=1;verticalAlign=middle;whiteSpace=wrap;rounded=0;" vertex="1" parent="1">
          <mxGeometry x="140" y="1260" width="220" height="30" as="geometry" />
        </mxCell>
      </root>
    </mxGraphModel>
  </diagram>
</mxfile>
